#N canvas -8 -8 1024 558 10;
#X msg 27 85 start;
#X obj 27 160 readsf~ 2;
#X obj 78 181 bng 15 250 50 0 empty empty empty 17 7 0 10 -262144 -1
-1;
#X obj 28 235 s~ vol1;
#X obj 180 77 cup;
#X obj 27 60 t b b b;
#X floatatom 180 106 5 0 0 0 - - -;
#X msg 180 56 0;
#X obj 180 135 moses 10;
#X obj 268 122 sel 1 2 3 4 5 6 7 8 9;
#X obj 268 285 bng 15 250 50 0 empty empty empty 17 7 0 10 -262144
-1 -1;
#X obj 281 269 bng 15 250 50 0 empty empty empty 17 7 0 10 -262144
-1 -1;
#X obj 295 253 bng 15 250 50 0 empty empty empty 17 7 0 10 -262144
-1 -1;
#X obj 309 237 bng 15 250 50 0 empty empty empty 17 7 0 10 -262144
-1 -1;
#X obj 322 221 bng 15 250 50 0 empty empty empty 17 7 0 10 -262144
-1 -1;
#X obj 336 206 bng 15 250 50 0 empty empty empty 17 7 0 10 -262144
-1 -1;
#X obj 350 190 bng 15 250 50 0 empty empty empty 17 7 0 10 -262144
-1 -1;
#X obj 363 174 bng 15 250 50 0 empty empty empty 17 7 0 10 -262144
-1 -1;
#X obj 377 158 bng 15 250 50 0 empty empty empty 17 7 0 10 -262144
-1 -1;
#X obj 391 142 bng 15 250 50 0 empty empty empty 17 7 0 10 -262144
-1 -1;
#X msg 46 112 open inter_test02.wav;
#X connect 0 0 1 0;
#X connect 1 0 3 0;
#X connect 1 1 3 0;
#X connect 1 2 2 0;
#X connect 4 0 6 0;
#X connect 5 0 0 0;
#X connect 5 1 20 0;
#X connect 5 2 4 0;
#X connect 6 0 8 0;
#X connect 6 0 9 0;
#X connect 7 0 4 0;
#X connect 8 1 7 0;
#X connect 9 0 10 0;
#X connect 9 1 11 0;
#X connect 9 2 12 0;
#X connect 9 3 13 0;
#X connect 9 4 14 0;
#X connect 9 5 15 0;
#X connect 9 6 16 0;
#X connect 9 7 17 0;
#X connect 9 8 18 0;
#X connect 9 9 19 0;
#X connect 20 0 1 0;
