#N canvas 0 0 1010 619 12;
#X obj 752 42 loadbang;
#X obj 31 430 *~;
#X obj 71 403 r cutoff;
#X obj 31 318 r phase;
#X msg 24 176 bang;
#X obj 752 136 soundfiler;
#X obj 71 430 vline~;
#X obj 68 564 output~;
#X obj 31 348 vline~;
#X floatatom 752 163 12 0 0 0 - - -;
#X obj 31 378 tabread4~ latencia;
#X obj 456 196 bng 15 250 50 0 empty empty empty 17 7 0 10 -262144
-1 -1;
#X obj 456 231 metro 500;
#X obj 456 259 cup;
#X floatatom 456 291 5 0 0 0 - - -;
#X msg 526 239 0;
#X msg 494 211 0;
#X obj 456 346 t b b;
#X obj 131 216 delay 1;
#X msg 131 251 \; phase 1 \, 4.41e+008 1e+007 \; cutoff 1;
#X obj 456 392 s bang;
#X obj 24 149 r bang;
#X obj 161 86 bng 15 250 50 0 empty empty empty 17 7 0 10 -262144 -1
-1;
#X obj 188 101 delay 2000;
#X text 48 -28 Conexión con sensor;
#X obj 83 161 bng 15 250 50 0 empty empty empty 17 7 0 10 -262144 -1
-1;
#X obj 83 138 r iniciar;
#X obj 188 128 s iniciar;
#X obj 354 114 s parar;
#X obj 494 159 r parar;
#X obj 494 184 t b b;
#X obj 334 88 delay 1000;
#X obj 334 64 bng 15 250 50 0 empty empty empty 17 7 0 10 -262144 -1
-1;
#X obj 456 370 delay 500;
#X msg 721 76 read -resize latencia.wav latencia;
#X msg 752 107 read latencia.wav latencia;
#X obj 456 318 sel 230;
#X msg 24 252 \; cutoff 0 2000;
#X msg 334 138 \; cutoff 0 2000;
#X obj 188 68 onebang;
#X obj 188 47 bng 15 250 50 0 empty empty empty 17 7 0 10 -262144 -1
-1;
#X obj 234 46 bng 15 250 50 0 empty empty empty 17 7 0 10 -262144 -1
-1;
#X obj 256 68 onebang;
#X obj 256 47 bng 15 250 50 0 empty empty empty 17 7 0 10 -262144 -1
-1;
#X obj 302 47 bng 15 250 50 0 empty empty empty 17 7 0 10 -262144 -1
-1;
#X obj 190 13 moses 1;
#X obj 190 -12 r control;
#N canvas 0 0 1028 532 audio_select 0;
#X obj 201 569 outlet~;
#X obj 108 -1 moses 1;
#X obj 191 -1 moses 408;
#X obj 290 -1 moses 810;
#X obj 387 -1 moses 1200;
#X obj 484 -1 moses 1400;
#X obj 108 44 onebang;
#X obj 108 24 bng 15 250 50 0 empty empty empty 17 7 0 10 -262144 -1
-1;
#X obj 154 24 bng 15 250 50 0 empty empty empty 17 7 0 10 -262144 -1
-1;
#X obj 108 103 hradio 15 1 0 6 empty empty empty 0 -8 0 10 -262144
-1 -1 4;
#X obj 108 78 counter;
#X obj 191 44 onebang;
#X obj 191 24 bng 15 250 50 0 empty empty empty 17 7 0 10 -262144 -1
-1;
#X obj 237 24 bng 15 250 50 0 empty empty empty 17 7 0 10 -262144 -1
-1;
#X obj 290 44 onebang;
#X obj 290 24 bng 15 250 50 0 empty empty empty 17 7 0 10 -262144 -1
-1;
#X obj 336 24 bng 15 250 50 0 empty empty empty 17 7 0 10 -262144 -1
-1;
#X obj 387 44 onebang;
#X obj 387 24 bng 15 250 50 0 empty empty empty 17 7 0 10 -262144 -1
-1;
#X obj 433 24 bng 15 250 50 0 empty empty empty 17 7 0 10 -262144 -1
-1;
#X obj 484 44 onebang;
#X obj 484 24 bng 15 250 50 0 empty empty empty 17 7 0 10 -262144 -1
-1;
#X obj 530 24 bng 15 250 50 0 empty empty empty 17 7 0 10 -262144 -1
-1;
#X obj 108 124 route 0 1 2 3 4 5;
#X obj 108 149 bng 15 250 50 0 empty empty empty 17 7 0 10 -262144
-1 -1;
#X obj 128 149 bng 15 250 50 0 empty empty empty 17 7 0 10 -262144
-1 -1;
#X obj 148 149 bng 15 250 50 0 empty empty empty 17 7 0 10 -262144
-1 -1;
#X obj 168 149 bng 15 250 50 0 empty empty empty 17 7 0 10 -262144
-1 -1;
#X obj 188 149 bng 15 250 50 0 empty empty empty 17 7 0 10 -262144
-1 -1;
#X obj 48 -36 r control;
#X obj 208 149 bng 15 250 50 0 empty empty empty 17 7 0 10 -262144
-1 -1;
#X obj 31 -3 sel 0;
#X obj 31 63 bng 15 250 50 0 empty empty empty 17 7 0 10 -262144 -1
-1;
#X msg -321 242 \; corte 0 1000;
#X obj -319 191 t b b;
#X msg -319 216 stop;
#X msg -192 289 start;
#X obj -192 372 readsf~ 2;
#X obj -141 393 bng 15 250 50 0 empty empty empty 17 7 0 10 -262144
-1 -1;
#X obj -192 264 t b b b;
#X msg -184 222 \; cutoff 0 1000;
#X obj -192 464 *~;
#X obj -155 464 vline~;
#X obj -155 437 r corte;
#X msg -110 284 \; corte 1 1000;
#X msg -169 338 open Inter01.wav;
#X msg 9 285 start;
#X obj 9 368 readsf~ 2;
#X obj 60 389 bng 15 250 50 0 empty empty empty 17 7 0 10 -262144 -1
-1;
#X msg 17 218 \; cutoff 0 1000;
#X obj 9 460 *~;
#X obj 46 460 vline~;
#X obj 46 433 r corte;
#X msg 80 292 \; corte 1 1000;
#X msg 32 334 open Inter02.wav;
#X msg 201 283 start;
#X obj 201 366 readsf~ 2;
#X obj 252 387 bng 15 250 50 0 empty empty empty 17 7 0 10 -262144
-1 -1;
#X msg 209 216 \; cutoff 0 1000;
#X obj 201 458 *~;
#X obj 238 458 vline~;
#X obj 238 431 r corte;
#X msg 274 287 \; corte 1 1000;
#X msg 224 332 open Inter03.wav;
#X msg 386 282 start;
#X obj 386 365 readsf~ 2;
#X obj 437 386 bng 15 250 50 0 empty empty empty 17 7 0 10 -262144
-1 -1;
#X msg 394 215 \; cutoff 0 1000;
#X obj 386 457 *~;
#X obj 423 457 vline~;
#X obj 423 430 r corte;
#X msg 464 285 \; corte 1 1000;
#X msg 409 331 open Inter04.wav;
#X msg 569 287 start;
#X obj 569 370 readsf~ 2;
#X obj 620 391 bng 15 250 50 0 empty empty empty 17 7 0 10 -262144
-1 -1;
#X msg 577 220 \; cutoff 0 1000;
#X obj 569 462 *~;
#X obj 606 462 vline~;
#X obj 606 435 r corte;
#X msg 638 290 \; corte 1 1000;
#X msg 592 336 open Inter05.wav;
#X text -320 154 inactividad;
#X obj 354 144 s iniciarInter;
#X obj 437 404 s pararInter;
#X obj 620 409 s pararInter;
#X obj 252 405 s pararInter;
#X obj 60 407 s pararInter;
#X obj -141 411 s pararInter;
#X obj 9 260 t b b b b;
#X obj 83 260 delay 5000;
#X obj 201 258 t b b b b;
#X obj 386 257 t b b b b;
#X obj 569 262 t b b b b;
#X msg -75 444 0 1000;
#X msg 122 441 0 2000;
#X msg 310 438 0 3000;
#X msg 501 437 0 4000;
#X obj 276 258 delay 5000;
#X obj 473 255 delay 5000;
#X obj 645 261 delay 5000;
#X connect 1 0 8 0;
#X connect 1 1 7 0;
#X connect 2 0 13 0;
#X connect 2 1 12 0;
#X connect 3 0 16 0;
#X connect 3 1 15 0;
#X connect 4 0 19 0;
#X connect 4 1 18 0;
#X connect 5 0 22 0;
#X connect 5 1 21 0;
#X connect 6 0 10 0;
#X connect 7 0 6 0;
#X connect 8 0 6 1;
#X connect 9 0 23 0;
#X connect 10 0 9 0;
#X connect 11 0 10 0;
#X connect 12 0 11 0;
#X connect 13 0 11 1;
#X connect 14 0 10 0;
#X connect 15 0 14 0;
#X connect 16 0 14 1;
#X connect 17 0 10 0;
#X connect 18 0 17 0;
#X connect 19 0 17 1;
#X connect 20 0 10 0;
#X connect 21 0 20 0;
#X connect 22 0 20 1;
#X connect 23 0 24 0;
#X connect 23 1 25 0;
#X connect 23 1 83 0;
#X connect 23 2 26 0;
#X connect 23 2 83 0;
#X connect 23 3 27 0;
#X connect 23 4 28 0;
#X connect 23 4 83 0;
#X connect 23 5 30 0;
#X connect 23 5 83 0;
#X connect 24 0 34 0;
#X connect 25 0 39 0;
#X connect 25 0 40 0;
#X connect 26 0 49 0;
#X connect 26 0 89 0;
#X connect 27 0 58 0;
#X connect 27 0 91 0;
#X connect 28 0 67 0;
#X connect 28 0 92 0;
#X connect 29 0 1 0;
#X connect 29 0 2 0;
#X connect 29 0 3 0;
#X connect 29 0 4 0;
#X connect 29 0 5 0;
#X connect 29 0 31 0;
#X connect 30 0 76 0;
#X connect 30 0 93 0;
#X connect 31 0 32 0;
#X connect 32 0 10 3;
#X connect 34 0 35 0;
#X connect 34 1 33 0;
#X connect 36 0 37 0;
#X connect 37 0 41 0;
#X connect 37 1 41 0;
#X connect 37 2 38 0;
#X connect 38 0 88 0;
#X connect 39 0 36 0;
#X connect 39 1 45 0;
#X connect 39 2 44 0;
#X connect 41 0 0 0;
#X connect 42 0 41 1;
#X connect 43 0 42 0;
#X connect 45 0 37 0;
#X connect 46 0 47 0;
#X connect 47 0 50 0;
#X connect 47 1 50 0;
#X connect 47 2 48 0;
#X connect 48 0 87 0;
#X connect 50 0 0 0;
#X connect 51 0 50 1;
#X connect 52 0 51 0;
#X connect 54 0 47 0;
#X connect 55 0 56 0;
#X connect 56 0 59 0;
#X connect 56 1 59 0;
#X connect 56 2 57 0;
#X connect 57 0 86 0;
#X connect 59 0 0 0;
#X connect 60 0 59 1;
#X connect 61 0 60 0;
#X connect 63 0 56 0;
#X connect 64 0 65 0;
#X connect 65 0 68 0;
#X connect 65 1 68 0;
#X connect 65 2 66 0;
#X connect 66 0 84 0;
#X connect 68 0 0 0;
#X connect 69 0 68 1;
#X connect 70 0 69 0;
#X connect 72 0 65 0;
#X connect 73 0 74 0;
#X connect 74 0 77 0;
#X connect 74 1 77 0;
#X connect 74 2 75 0;
#X connect 75 0 85 0;
#X connect 77 0 0 0;
#X connect 78 0 77 1;
#X connect 79 0 78 0;
#X connect 81 0 74 0;
#X connect 89 0 46 0;
#X connect 89 1 54 0;
#X connect 89 2 53 0;
#X connect 89 3 90 0;
#X connect 90 0 94 0;
#X connect 91 0 55 0;
#X connect 91 1 63 0;
#X connect 91 2 62 0;
#X connect 91 3 98 0;
#X connect 92 0 64 0;
#X connect 92 1 72 0;
#X connect 92 2 71 0;
#X connect 92 3 99 0;
#X connect 93 0 73 0;
#X connect 93 1 81 0;
#X connect 93 2 80 0;
#X connect 93 3 100 0;
#X connect 94 0 42 0;
#X connect 95 0 51 0;
#X connect 96 0 60 0;
#X connect 97 0 69 0;
#X connect 98 0 95 0;
#X connect 99 0 96 0;
#X connect 100 0 97 0;
#X restore 195 480 pd audio_select;
#X obj 90 66 loadbang;
#N canvas 0 0 450 300 (subpatch) 0;
#X array latencia 6.04015e+006 float 0;
#X coords 0 1.02 6.04015e+006 -1.02 200 130 1;
#X restore 688 269 graph;
#X obj 491 604 dac~ 1 2 3 4;
#N canvas 211 21 742 522 filtros 0;
#X obj 25 43 inlet~;
#X obj 191 43 inlet~;
#X obj 24 465 outlet~;
#X obj 191 467 outlet~;
#X text 23 9 Sistema de filtros dividido por parlantes;
#X obj 24 435 *~;
#X obj 45 415 hsl 50 15 1 4 0 0 empty empty empty -2 -8 0 10 -262144
-1 -1 102 1;
#X obj 43 337 random 4;
#X obj 42 319 bng 15 250 50 0 empty empty empty 17 7 0 10 -262144 -1
-1;
#X obj 42 390 line;
#X text 19 490 parlante 1;
#X text 189 491 parlante 2;
#X obj 42 275 bng 15 250 50 0 empty empty empty 17 7 0 10 -262144 -1
-1;
#X obj 42 295 metro 2000;
#X msg 42 360 \$1 3000;
#X obj 190 440 *~;
#X obj 211 420 hsl 50 15 1 4 0 0 empty empty empty -2 -8 0 10 -262144
-1 -1 2022 1;
#X obj 209 342 random 4;
#X obj 208 324 bng 15 250 50 0 empty empty empty 17 7 0 10 -262144
-1 -1;
#X obj 208 395 line;
#X obj 208 280 bng 15 250 50 0 empty empty empty 17 7 0 10 -262144
-1 -1;
#X obj 208 300 metro 2000;
#X msg 208 365 \$1 3000;
#X msg 65 270 stop;
#X msg 231 275 stop;
#X obj 345 42 inlet~;
#X obj 511 42 inlet~;
#X obj 344 464 outlet~;
#X obj 511 466 outlet~;
#X obj 344 434 *~;
#X obj 365 414 hsl 50 15 1 4 0 0 empty empty empty -2 -8 0 10 -262144
-1 -1 0 1;
#X obj 363 336 random 4;
#X obj 362 318 bng 15 250 50 0 empty empty empty 17 7 0 10 -262144
-1 -1;
#X obj 362 389 line;
#X obj 362 274 bng 15 250 50 0 empty empty empty 17 7 0 10 -262144
-1 -1;
#X obj 362 294 metro 2000;
#X obj 510 439 *~;
#X obj 531 419 hsl 50 15 1 4 0 0 empty empty empty -2 -8 0 10 -262144
-1 -1 3136 1;
#X obj 529 341 random 4;
#X obj 528 323 bng 15 250 50 0 empty empty empty 17 7 0 10 -262144
-1 -1;
#X obj 528 394 line;
#X obj 528 279 bng 15 250 50 0 empty empty empty 17 7 0 10 -262144
-1 -1;
#X obj 528 299 metro 2000;
#X msg 385 269 stop;
#X msg 551 274 stop;
#X text 339 489 parlante 3;
#X text 509 490 parlante 4;
#X msg 362 359 \$1 1500;
#X msg 528 364 \$1 1500;
#X text 635 218 movimiento diferenciado doble stereo;
#X obj 42 220 r iniciarInter;
#X obj 65 246 r pararInter;
#X obj 208 222 r iniciarInter;
#X obj 231 251 r pararInter;
#X obj 362 219 r iniciarInter;
#X obj 385 245 r pararInter;
#X obj 528 221 r iniciarInter;
#X obj 551 250 r pararInter;
#X connect 0 0 5 0;
#X connect 1 0 15 0;
#X connect 5 0 2 0;
#X connect 6 0 5 1;
#X connect 7 0 14 0;
#X connect 8 0 7 0;
#X connect 9 0 6 0;
#X connect 12 0 13 0;
#X connect 13 0 8 0;
#X connect 14 0 9 0;
#X connect 15 0 3 0;
#X connect 16 0 15 1;
#X connect 17 0 22 0;
#X connect 18 0 17 0;
#X connect 19 0 16 0;
#X connect 20 0 21 0;
#X connect 21 0 18 0;
#X connect 22 0 19 0;
#X connect 23 0 13 0;
#X connect 24 0 21 0;
#X connect 25 0 29 0;
#X connect 26 0 36 0;
#X connect 29 0 27 0;
#X connect 30 0 29 1;
#X connect 31 0 47 0;
#X connect 32 0 31 0;
#X connect 33 0 30 0;
#X connect 34 0 35 0;
#X connect 35 0 32 0;
#X connect 36 0 28 0;
#X connect 37 0 36 1;
#X connect 38 0 48 0;
#X connect 39 0 38 0;
#X connect 40 0 37 0;
#X connect 41 0 42 0;
#X connect 42 0 39 0;
#X connect 43 0 35 0;
#X connect 44 0 42 0;
#X connect 47 0 33 0;
#X connect 48 0 40 0;
#X connect 50 0 12 0;
#X connect 51 0 23 0;
#X connect 52 0 20 0;
#X connect 53 0 24 0;
#X connect 54 0 34 0;
#X connect 55 0 43 0;
#X connect 56 0 41 0;
#X connect 57 0 44 0;
#X restore 194 516 pd filtros Inter;
#N canvas 518 25 742 522 filtros 0;
#X obj 25 43 inlet~;
#X obj 191 43 inlet~;
#X obj 24 465 outlet~;
#X obj 191 467 outlet~;
#X text 23 9 Sistema de filtros dividido por parlantes;
#X obj 24 435 *~;
#X obj 45 415 hsl 50 15 1 4 0 0 empty empty empty -2 -8 0 10 -262144
-1 -1 0 1;
#X obj 43 337 random 4;
#X obj 42 319 bng 15 250 50 0 empty empty empty 17 7 0 10 -262144 -1
-1;
#X obj 42 390 line;
#X text 19 490 parlante 1;
#X text 189 491 parlante 2;
#X obj 42 275 bng 15 250 50 0 empty empty empty 17 7 0 10 -262144 -1
-1;
#X obj 42 295 metro 2000;
#X msg 42 360 \$1 3000;
#X obj 190 440 *~;
#X obj 211 420 hsl 50 15 1 4 0 0 empty empty empty -2 -8 0 10 -262144
-1 -1 0 1;
#X obj 209 342 random 4;
#X obj 208 324 bng 15 250 50 0 empty empty empty 17 7 0 10 -262144
-1 -1;
#X obj 208 395 line;
#X obj 208 280 bng 15 250 50 0 empty empty empty 17 7 0 10 -262144
-1 -1;
#X obj 208 300 metro 2000;
#X msg 208 365 \$1 3000;
#X obj 65 246 r parar;
#X obj 42 220 r iniciar;
#X msg 65 270 stop;
#X obj 231 251 r parar;
#X obj 208 222 r iniciar;
#X msg 231 275 stop;
#X obj 345 42 inlet~;
#X obj 511 42 inlet~;
#X obj 344 464 outlet~;
#X obj 511 466 outlet~;
#X obj 344 434 *~;
#X obj 365 414 hsl 50 15 1 4 0 0 empty empty empty -2 -8 0 10 -262144
-1 -1 0 1;
#X obj 363 336 random 4;
#X obj 362 318 bng 15 250 50 0 empty empty empty 17 7 0 10 -262144
-1 -1;
#X obj 362 389 line;
#X obj 362 274 bng 15 250 50 0 empty empty empty 17 7 0 10 -262144
-1 -1;
#X obj 362 294 metro 2000;
#X obj 510 439 *~;
#X obj 531 419 hsl 50 15 1 4 0 0 empty empty empty -2 -8 0 10 -262144
-1 -1 1633 1;
#X obj 529 341 random 4;
#X obj 528 323 bng 15 250 50 0 empty empty empty 17 7 0 10 -262144
-1 -1;
#X obj 528 394 line;
#X obj 528 279 bng 15 250 50 0 empty empty empty 17 7 0 10 -262144
-1 -1;
#X obj 528 299 metro 2000;
#X obj 385 245 r parar;
#X obj 362 219 r iniciar;
#X msg 385 269 stop;
#X obj 551 250 r parar;
#X obj 528 221 r iniciar;
#X msg 551 274 stop;
#X text 339 489 parlante 3;
#X text 509 490 parlante 4;
#X msg 362 359 \$1 1500;
#X msg 528 364 \$1 1500;
#X text 635 218 movimiento diferenciado doble stereo;
#X connect 0 0 5 0;
#X connect 1 0 15 0;
#X connect 5 0 2 0;
#X connect 6 0 5 1;
#X connect 7 0 14 0;
#X connect 8 0 7 0;
#X connect 9 0 6 0;
#X connect 12 0 13 0;
#X connect 13 0 8 0;
#X connect 14 0 9 0;
#X connect 15 0 3 0;
#X connect 16 0 15 1;
#X connect 17 0 22 0;
#X connect 18 0 17 0;
#X connect 19 0 16 0;
#X connect 20 0 21 0;
#X connect 21 0 18 0;
#X connect 22 0 19 0;
#X connect 23 0 25 0;
#X connect 24 0 12 0;
#X connect 25 0 13 0;
#X connect 26 0 28 0;
#X connect 27 0 20 0;
#X connect 28 0 21 0;
#X connect 29 0 33 0;
#X connect 30 0 40 0;
#X connect 33 0 31 0;
#X connect 34 0 33 1;
#X connect 35 0 55 0;
#X connect 36 0 35 0;
#X connect 37 0 34 0;
#X connect 38 0 39 0;
#X connect 39 0 36 0;
#X connect 40 0 32 0;
#X connect 41 0 40 1;
#X connect 42 0 56 0;
#X connect 43 0 42 0;
#X connect 44 0 41 0;
#X connect 45 0 46 0;
#X connect 46 0 43 0;
#X connect 47 0 49 0;
#X connect 48 0 38 0;
#X connect 49 0 39 0;
#X connect 50 0 52 0;
#X connect 51 0 45 0;
#X connect 52 0 46 0;
#X connect 55 0 37 0;
#X connect 56 0 44 0;
#X restore 31 518 pd filtros Latecia;
#X text 598 579 cuadrafonía;
#N canvas 0 0 1022 558 flash 0;
#X obj 591 224 noise~;
#X obj 590 264 hp2_butt~ 12000 1000;
#X obj 159 328 osc~ 15000;
#X obj 256 254 bng 15 250 50 0 empty dispara empty 17 7 0 10 -258113
-1 -1;
#X obj 256 273 t b b;
#X msg 256 339 0;
#X obj 452 187 bng 15 250 50 0 empty dispara empty 17 7 0 10 -258113
-1 -1;
#X obj 452 206 t b b;
#X msg 452 269 0;
#X obj 355 289 *~ 0;
#X obj 452 236 delay 80;
#X obj 356 261 osc~ 50;
#X obj 159 368 *~ 0;
#X obj 664 281 bng 15 250 50 0 empty dispara empty 17 7 0 10 -258113
-1 -1;
#X obj 664 300 t b b;
#X msg 665 363 0;
#X obj 567 383 *~ 0;
#X obj 366 108 bng 15 250 50 0 dispara empty dispara 17 7 0 10 -258113
-1 -1;
#X obj 664 330 delay 50;
#X msg 639 243;
#X obj 359 453 outlet~;
#X obj 366 68 inlet;
#X obj 355 344 delay~ 100;
#X obj 256 303 delay 200;
#X msg 483 269 0.2;
#X msg 289 339 0.2;
#X msg 697 363 0.1;
#X connect 0 0 1 0;
#X connect 1 0 16 0;
#X connect 2 0 12 0;
#X connect 3 0 4 0;
#X connect 4 0 23 0;
#X connect 4 1 25 0;
#X connect 5 0 12 1;
#X connect 6 0 7 0;
#X connect 7 0 10 0;
#X connect 7 1 24 0;
#X connect 8 0 9 1;
#X connect 9 0 22 0;
#X connect 10 0 8 0;
#X connect 11 0 9 0;
#X connect 12 0 20 0;
#X connect 13 0 14 0;
#X connect 14 0 18 0;
#X connect 14 1 26 0;
#X connect 15 0 16 1;
#X connect 16 0 20 0;
#X connect 18 0 15 0;
#X connect 19 0 1 1;
#X connect 21 0 17 0;
#X connect 22 0 20 0;
#X connect 23 0 5 0;
#X connect 24 0 9 1;
#X connect 25 0 12 1;
#X connect 26 0 16 1;
#X restore 197 445 pd flash;
#X obj 197 358 r control;
#X obj 197 421 bng 15 250 50 0 empty empty empty 17 7 0 10 -262144
-1 -1;
#X obj 197 393 sel 400;
#X obj 100 34 bng 15 250 50 0 cierre empty cierre 17 7 0 10 -262144
-1 -1;
#X obj 261 430 bng 15 250 50 0 empty cierre cierre 17 7 0 10 -262144
-1 -1;
#X text 142 576 En la U;
#X connect 0 0 35 0;
#X connect 1 0 52 0;
#X connect 1 0 52 1;
#X connect 2 0 6 0;
#X connect 3 0 8 0;
#X connect 4 0 37 0;
#X connect 4 0 11 0;
#X connect 4 0 18 0;
#X connect 5 0 9 0;
#X connect 6 0 1 1;
#X connect 8 0 10 0;
#X connect 10 0 1 0;
#X connect 11 0 12 0;
#X connect 12 0 13 0;
#X connect 13 0 14 0;
#X connect 14 0 36 0;
#X connect 15 0 13 0;
#X connect 15 0 14 0;
#X connect 16 0 12 0;
#X connect 17 0 33 0;
#X connect 17 1 15 0;
#X connect 18 0 19 0;
#X connect 21 0 4 0;
#X connect 22 0 23 0;
#X connect 23 0 27 0;
#X connect 25 0 4 0;
#X connect 26 0 25 0;
#X connect 29 0 30 0;
#X connect 30 0 16 0;
#X connect 30 1 15 0;
#X connect 31 0 28 0;
#X connect 31 0 38 0;
#X connect 32 0 31 0;
#X connect 33 0 20 0;
#X connect 34 0 5 0;
#X connect 35 0 5 0;
#X connect 36 0 17 0;
#X connect 39 0 23 0;
#X connect 39 0 58 0;
#X connect 40 0 39 0;
#X connect 41 0 39 1;
#X connect 42 0 31 0;
#X connect 43 0 42 0;
#X connect 44 0 42 1;
#X connect 45 0 40 0;
#X connect 45 0 44 0;
#X connect 45 1 41 0;
#X connect 45 1 43 0;
#X connect 46 0 45 0;
#X connect 47 0 51 0;
#X connect 47 0 51 1;
#X connect 48 0 22 0;
#X connect 51 0 7 0;
#X connect 51 1 7 1;
#X connect 52 0 7 0;
#X connect 52 1 7 1;
#X connect 54 0 7 0;
#X connect 54 0 7 1;
#X connect 55 0 57 0;
#X connect 56 0 54 0;
#X connect 57 0 56 0;
#X connect 59 0 54 0;
