#N canvas 126 45 1041 615 12;
#N canvas 0 0 450 300 (subpatch) 0;
#X array latencia 5.3361e+006 float 0;
#X coords 0 1.02 5.3361e+006 -1.02 200 130 1;
#X restore 678 291 graph;
#X obj 252 392 loadbang;
#X obj 31 430 *~;
#X obj 71 403 r cutoff;
#X obj 31 318 r phase;
#X msg 24 176 bang;
#X obj 252 486 soundfiler;
#X obj 71 430 vline~;
#X obj 30 523 output~;
#X obj 31 348 vline~;
#X floatatom 252 513 12 0 0 0 - - -;
#X obj 31 378 tabread4~ latencia;
#X obj 456 196 bng 15 250 50 0 empty empty empty 17 7 0 10 -262144
-1 -1;
#X obj 456 231 metro 500;
#X obj 456 259 cup;
#X floatatom 456 291 5 0 0 0 - - -;
#X msg 526 239 0;
#X msg 494 211 0;
#X obj 456 346 t b b;
#X obj 131 216 delay 1;
#X msg 131 251 \; phase 1 \, 4.41e+008 1e+007 \; cutoff 1;
#X obj 456 392 s bang;
#X obj 24 149 r bang;
#X obj 161 86 bng 15 250 50 0 empty empty empty 17 7 0 10 -262144 -1
-1;
#X obj 188 101 delay 2000;
#X text 48 -28 Conexión con sensor;
#X obj 83 161 bng 15 250 50 0 empty empty empty 17 7 0 10 -262144 -1
-1;
#X obj 83 138 r iniciar;
#X obj 188 128 s iniciar;
#X obj 354 114 s parar;
#X obj 494 159 r parar;
#X obj 494 184 t b b;
#X obj 334 88 delay 1000;
#X obj 334 64 bng 15 250 50 0 empty empty empty 17 7 0 10 -262144 -1
-1;
#X obj 456 370 delay 500;
#X msg 221 426 read -resize latencia.wav latencia;
#X msg 252 457 read latencia.wav latencia;
#X obj 456 318 sel 230;
#N canvas 770 133 450 522 filtros 0;
#X obj 25 43 inlet~;
#X obj 191 43 inlet~;
#X obj 24 465 outlet~;
#X obj 191 467 outlet~;
#X text 23 9 Sistema de filtros dividido por parlantes;
#X obj 24 435 *~;
#X obj 45 415 hsl 50 15 1 4 0 0 empty empty empty -2 -8 0 10 -262144
-1 -1 0 1;
#X obj 43 337 random 4;
#X obj 42 319 bng 15 250 50 0 empty empty empty 17 7 0 10 -262144 -1
-1;
#X obj 42 390 line;
#X text 19 490 parlante 1;
#X text 189 491 parlante 2;
#X obj 42 275 bng 15 250 50 0 empty empty empty 17 7 0 10 -262144 -1
-1;
#X obj 42 295 metro 2000;
#X msg 42 360 \$1 3000;
#X obj 190 440 *~;
#X obj 211 420 hsl 50 15 1 4 0 0 empty empty empty -2 -8 0 10 -262144
-1 -1 811 1;
#X obj 209 342 random 4;
#X obj 208 324 bng 15 250 50 0 empty empty empty 17 7 0 10 -262144
-1 -1;
#X obj 208 395 line;
#X obj 208 280 bng 15 250 50 0 empty empty empty 17 7 0 10 -262144
-1 -1;
#X obj 208 300 metro 2000;
#X msg 208 365 \$1 3000;
#X obj 65 246 r parar;
#X obj 42 220 r iniciar;
#X msg 65 270 stop;
#X obj 231 251 r parar;
#X obj 208 222 r iniciar;
#X msg 231 275 stop;
#X connect 0 0 5 0;
#X connect 1 0 15 0;
#X connect 5 0 2 0;
#X connect 6 0 5 1;
#X connect 7 0 14 0;
#X connect 8 0 7 0;
#X connect 9 0 6 0;
#X connect 12 0 13 0;
#X connect 13 0 8 0;
#X connect 14 0 9 0;
#X connect 15 0 3 0;
#X connect 16 0 15 1;
#X connect 17 0 22 0;
#X connect 18 0 17 0;
#X connect 19 0 16 0;
#X connect 20 0 21 0;
#X connect 21 0 18 0;
#X connect 22 0 19 0;
#X connect 23 0 25 0;
#X connect 24 0 12 0;
#X connect 25 0 13 0;
#X connect 26 0 28 0;
#X connect 27 0 20 0;
#X connect 28 0 21 0;
#X restore 31 477 pd filtros;
#X text 456 -19 Probar sensado simultáneo de temp;
#X msg 24 252 \; cutoff 0 2000;
#X msg 334 138 \; cutoff 0 2000;
#X obj 188 68 onebang;
#X obj 188 47 bng 15 250 50 0 empty empty empty 17 7 0 10 -262144 -1
-1;
#X obj 234 46 bng 15 250 50 0 empty empty empty 17 7 0 10 -262144 -1
-1;
#X obj 256 68 onebang;
#X obj 256 47 bng 15 250 50 0 empty empty empty 17 7 0 10 -262144 -1
-1;
#X obj 302 47 bng 15 250 50 0 empty empty empty 17 7 0 10 -262144 -1
-1;
#X obj 190 13 moses 1;
#X obj 190 -12 r control;
#X obj 66 66 loadbang;
#X connect 1 0 36 0;
#X connect 2 0 38 0;
#X connect 2 0 38 1;
#X connect 3 0 7 0;
#X connect 4 0 9 0;
#X connect 5 0 40 0;
#X connect 5 0 12 0;
#X connect 5 0 19 0;
#X connect 6 0 10 0;
#X connect 7 0 2 1;
#X connect 9 0 11 0;
#X connect 11 0 2 0;
#X connect 12 0 13 0;
#X connect 13 0 14 0;
#X connect 14 0 15 0;
#X connect 15 0 37 0;
#X connect 16 0 14 0;
#X connect 16 0 15 0;
#X connect 17 0 13 0;
#X connect 18 0 34 0;
#X connect 18 1 16 0;
#X connect 19 0 20 0;
#X connect 22 0 5 0;
#X connect 23 0 24 0;
#X connect 24 0 28 0;
#X connect 26 0 5 0;
#X connect 27 0 26 0;
#X connect 30 0 31 0;
#X connect 31 0 17 0;
#X connect 31 1 16 0;
#X connect 32 0 29 0;
#X connect 32 0 41 0;
#X connect 33 0 32 0;
#X connect 34 0 21 0;
#X connect 35 0 6 0;
#X connect 36 0 6 0;
#X connect 37 0 18 0;
#X connect 38 0 8 0;
#X connect 38 1 8 1;
#X connect 42 0 24 0;
#X connect 43 0 42 0;
#X connect 44 0 42 1;
#X connect 45 0 32 0;
#X connect 46 0 45 0;
#X connect 47 0 45 1;
#X connect 48 0 43 0;
#X connect 48 0 47 0;
#X connect 48 1 44 0;
#X connect 48 1 46 0;
#X connect 49 0 48 0;
#X connect 50 0 23 0;
